<?xml version="1.0" encoding="UTF-8"?>
<!-- Generator: visioncortex VTracer 0.6.4 -->
<svg version="1.1" xmlns="http://www.w3.org/2000/svg" width="16" height="16">
<path d="M0,0 L3,0 L3,1 L5,1 L5,0 L8,0 L8,1 L10,1 L10,0 L13,0 L13,2 L14,2 L14,5 L13,5 L13,7 L14,7 L14,10 L13,10 L13,12 L14,12 L14,15 L12,15 L12,16 L9,16 L9,15 L7,15 L7,16 L4,16 L4,15 L2,15 L2,16 L-1,16 L-1,14 L-2,14 L-2,11 L-1,11 L-1,9 L-2,9 L-2,6 L-1,6 L-1,4 L-2,4 L-2,1 L0,1 Z " fill="#00FFFF" opacity="0.24705882" transform="translate(2,0)"/>
<path d="M0,0 L1,0 L1,1 L0,1 Z " fill="#00FFFF" opacity="0.9019608" transform="translate(15,15)"/>
<path d="M0,0 L2,0 L2,1 L0,1 Z " fill="#00FFFF" opacity="0.80784315" transform="translate(9,15)"/>
<path d="M0,0 L2,0 L2,1 L0,1 Z " fill="#00FFFF" opacity="0.80784315" transform="translate(4,15)"/>
<path d="M0,0 L1,0 L1,1 L0,1 Z " fill="#00FFFF" opacity="0.9019608" transform="translate(0,15)"/>
<path d="M0,0 L1,0 L1,2 L0,2 Z " fill="#00FFFF" opacity="0.80784315" transform="translate(15,10)"/>
<path d="M0,0 L1,0 L1,2 L0,2 Z " fill="#00FFFF" opacity="0.8039216" transform="translate(0,9)"/>
<path d="M0,0 L1,0 L1,2 L0,2 Z " fill="#00FFFF" opacity="0.80784315" transform="translate(15,5)"/>
<path d="M0,0 L1,0 L1,2 L0,2 Z " fill="#00FFFF" opacity="0.8039216" transform="translate(0,4)"/>
<path d="M0,0 L1,0 L1,1 L0,1 Z " fill="#00FFFF" opacity="0.80784315" transform="translate(15,1)"/>
<path d="M0,0 L2,0 L2,1 L0,1 Z " fill="#00FFFF" opacity="0.80784315" transform="translate(10,0)"/>
<path d="M0,0 L2,0 L2,1 L0,1 Z " fill="#00FFFF" opacity="0.80784315" transform="translate(5,0)"/>
<path d="M0,0 L2,0 L2,1 L0,1 Z " fill="#00FFFF" opacity="0.80784315" transform="translate(0,0)"/>
<path d="M0,0 L1,0 L1,1 L0,1 Z " fill="#00FFFF" opacity="0.80784315" transform="translate(14,15)"/>
<path d="M0,0 L1,0 L1,1 L0,1 Z " fill="#00FFFF" opacity="0.8039216" transform="translate(0,14)"/>
<path d="M0,0 L1,0 L1,1 L0,1 Z " fill="#00FFFF" opacity="0.9019608" transform="translate(15,0)"/>
</svg>
