<?xml version="1.0" encoding="UTF-8"?>
<!-- Generator: visioncortex VTracer 0.6.4 -->
<svg version="1.1" xmlns="http://www.w3.org/2000/svg" width="32" height="32">
<path d="M0,0 L10,0 L10,1 L12,1 L12,2 L13,2 L13,3 L15,3 L15,4 L16,4 L16,6 L17,6 L17,7 L18,7 L18,9 L19,9 L19,19 L18,19 L18,21 L17,21 L17,22 L16,22 L16,24 L15,24 L15,25 L13,25 L13,26 L12,26 L12,27 L10,27 L10,28 L0,28 L0,27 L-2,27 L-2,26 L-3,26 L-3,25 L-5,25 L-5,24 L-6,24 L-6,22 L-7,22 L-7,21 L-8,21 L-8,19 L-9,19 L-9,9 L-8,9 L-8,7 L-7,7 L-7,6 L-6,6 L-6,4 L-5,4 L-5,3 L-3,3 L-3,2 L-2,2 L-2,1 L0,1 Z " fill="#7D7D7D" opacity="0.24705882" transform="translate(11,2)"/>
<path d="M0,0 L1,0 L1,1 L0,1 Z " fill="#FDFDFD" opacity="0.94509804" transform="translate(21,1)"/>
<path d="M0,0 L1,0 L1,1 L0,1 Z " fill="#FCFCFC" opacity="0.9490196" transform="translate(1,21)"/>
<path d="M0,0 L1,0 L1,1 L0,1 Z " fill="#F8F8F8" opacity="0.79607844" transform="translate(25,28)"/>
<path d="M0,0 L1,0 L1,1 L0,1 Z " fill="#F4F4F4" opacity="0.53333336" transform="translate(7,29)"/>
<path d="M0,0 L1,0 L1,1 L0,1 Z " fill="#FAFAFA" opacity="0.6039216" transform="translate(1,9)"/>
<path d="M0,0 L1,0 L1,1 L0,1 Z " fill="#F3F3F3" opacity="0.5294118" transform="translate(29,7)"/>
<path d="M0,0 L1,0 L1,1 L0,1 Z M-1,1 L0,1 L0,2 L-1,2 Z " fill="#FBFBFB" opacity="0.8980392" transform="translate(5,4)"/>
<path d="M0,0 L1,0 L1,1 L0,1 Z " fill="#FDFDFD" opacity="0.94509804" transform="translate(30,21)"/>
<path d="M0,0 L1,0 L1,1 L0,1 Z M1,1 L2,1 L2,2 L1,2 Z " fill="#FBFBFB" opacity="0.8980392" transform="translate(26,4)"/>
<path d="M0,0 L1,0 L1,1 L0,1 Z " fill="#F8F8F8" opacity="0.78039217" transform="translate(13,0)"/>
<path d="M0,0 L1,0 L1,1 L0,1 Z " fill="#F0F0F0" opacity="0.30588236" transform="translate(20,31)"/>
<path d="M0,0 L1,0 L1,1 L0,1 Z " fill="#8E8E8E" opacity="0.28627452" transform="translate(15,30)"/>
<path d="M0,0 L1,0 L1,1 L0,1 Z " fill="#919191" opacity="0.28627452" transform="translate(1,15)"/>
<path d="M0,0 L1,0 L1,1 L0,1 Z " fill="#8E8E8E" opacity="0.28627452" transform="translate(15,1)"/>
<path d="M0,0 L1,0 L1,1 L0,1 Z " fill="#919191" opacity="0.28627452" transform="translate(30,15)"/>
<path d="M0,0 L1,0 L1,1 L0,1 Z " fill="#F4F4F4" opacity="0.53333336" transform="translate(7,2)"/>
<path d="M0,0 L1,0 L1,1 L0,1 Z " fill="#FEFEFE" opacity="0.9607843" transform="translate(15,31)"/>
<path d="M0,0 L1,0 L1,1 L0,1 Z " fill="#F8F8F8" opacity="0.79607844" transform="translate(28,25)"/>
<path d="M0,0 L1,0 L1,1 L0,1 Z " fill="#FDFDFD" opacity="0.95686275" transform="translate(31,15)"/>
<path d="M0,0 L1,0 L1,1 L0,1 Z " fill="#FDFDFD" opacity="0.9490196" transform="translate(0,15)"/>
<path d="M0,0 L1,0 L1,1 L0,1 Z " fill="#FEFEFE" opacity="0.9607843" transform="translate(15,0)"/>
<path d="M0,0 L1,0 L1,1 L0,1 Z " fill="#F4F4F4" opacity="0.53333336" transform="translate(29,24)"/>
<path d="M0,0 L1,0 L1,1 L0,1 Z " fill="#F7F7F7" opacity="0.76862746" transform="translate(0,13)"/>
<path d="M0,0 L1,0 L1,1 L0,1 Z " fill="#F8F8F8" opacity="0.79607844" transform="translate(25,3)"/>
<path d="M0,0 L1,0 L1,1 L0,1 Z " fill="#F8F8F8" opacity="0.79607844" transform="translate(6,3)"/>
<path d="M0,0 L1,0 L1,1 L0,1 Z " fill="#FAFAFA" opacity="0.6117647" transform="translate(22,30)"/>
<path d="M0,0 L1,0 L1,1 L0,1 Z " fill="#B1B1B1" opacity="0.4392157" transform="translate(18,30)"/>
<path d="M0,0 L1,0 L1,1 L0,1 Z " fill="#F4F4F4" opacity="0.53333336" transform="translate(24,29)"/>
<path d="M0,0 L1,0 L1,1 L0,1 Z " fill="#F2F2F2" opacity="0.30588236" transform="translate(0,20)"/>
<path d="M0,0 L1,0 L1,1 L0,1 Z " fill="#F4F4F4" opacity="0.5294118" transform="translate(24,2)"/>
<path d="M0,0 L1,0 L1,1 L0,1 Z " fill="#B1B1B1" opacity="0.4392157" transform="translate(18,1)"/>
<path d="M0,0 L1,0 L1,1 L0,1 Z " fill="#FAFAFA" opacity="0.6117647" transform="translate(9,1)"/>
<path d="M0,0 L1,0 L1,1 L0,1 Z " fill="#F2F2F2" opacity="0.30588236" transform="translate(20,0)"/>
<path d="M0,0 L1,0 L1,1 L0,1 Z " fill="#F8F8F8" opacity="0.78039217" transform="translate(13,31)"/>
<path d="M0,0 L1,0 L1,1 L0,1 Z " fill="#F0F0F0" opacity="0.30588236" transform="translate(11,31)"/>
<path d="M0,0 L1,0 L1,1 L0,1 Z " fill="#FDFDFD" opacity="0.94509804" transform="translate(21,30)"/>
<path d="M0,0 L1,0 L1,1 L0,1 Z " fill="#B1B1B1" opacity="0.4392157" transform="translate(13,30)"/>
<path d="M0,0 L1,0 L1,1 L0,1 Z " fill="#F1F1F1" opacity="0.81960785" transform="translate(11,30)"/>
<path d="M0,0 L1,0 L1,1 L0,1 Z " fill="#FAFAFA" opacity="0.6117647" transform="translate(9,30)"/>
<path d="M0,0 L1,0 L1,1 L0,1 Z " fill="#E1E1E1" opacity="0.7529412" transform="translate(7,28)"/>
<path d="M0,0 L1,0 L1,1 L0,1 Z " fill="#FAFAFA" opacity="0.6117647" transform="translate(30,22)"/>
<path d="M0,0 L1,0 L1,1 L0,1 Z " fill="#F2F2F2" opacity="0.03137255" transform="translate(31,21)"/>
<path d="M0,0 L1,0 L1,1 L0,1 Z " fill="#F5F5F5" opacity="0.6" transform="translate(31,19)"/>
<path d="M0,0 L1,0 L1,1 L0,1 Z " fill="#F7F7F7" opacity="0.76862746" transform="translate(31,13)"/>
<path d="M0,0 L1,0 L1,1 L0,1 Z " fill="#B1B1B1" opacity="0.43529412" transform="translate(30,13)"/>
<path d="M0,0 L1,0 L1,1 L0,1 Z " fill="#B1B1B1" opacity="0.43529412" transform="translate(1,13)"/>
<path d="M0,0 L1,0 L1,1 L0,1 Z " fill="#F0F0F0" opacity="0.29803923" transform="translate(31,11)"/>
<path d="M0,0 L1,0 L1,1 L0,1 Z " fill="#F2F2F2" opacity="0.8235294" transform="translate(30,11)"/>
<path d="M0,0 L1,0 L1,1 L0,1 Z " fill="#F2F2F2" opacity="0.8235294" transform="translate(1,11)"/>
<path d="M0,0 L1,0 L1,1 L0,1 Z " fill="#F0F0F0" opacity="0.29803923" transform="translate(0,11)"/>
<path d="M0,0 L1,0 L1,1 L0,1 Z " fill="#FAFAFA" opacity="0.6039216" transform="translate(30,9)"/>
<path d="M0,0 L1,0 L1,1 L0,1 Z " fill="#E2E2E2" opacity="0.75686276" transform="translate(28,7)"/>
<path d="M0,0 L1,0 L1,1 L0,1 Z " fill="#E2E2E2" opacity="0.75686276" transform="translate(3,7)"/>
<path d="M0,0 L1,0 L1,1 L0,1 Z " fill="#F4F4F4" opacity="0.5294118" transform="translate(2,7)"/>
<path d="M0,0 L1,0 L1,1 L0,1 Z " fill="#B1B1B1" opacity="0.4392157" transform="translate(13,1)"/>
<path d="M0,0 L1,0 L1,1 L0,1 Z " fill="#F2F2F2" opacity="0.8235294" transform="translate(11,1)"/>
<path d="M0,0 L1,0 L1,1 L0,1 Z " fill="#F2F2F2" opacity="0.30588236" transform="translate(11,0)"/>
<path d="M0,0 L1,0 L1,1 L0,1 Z " fill="#FDFDFD" opacity="0.02745098" transform="translate(21,31)"/>
<path d="M0,0 L1,0 L1,1 L0,1 Z " fill="#F2F2F2" opacity="0.60784316" transform="translate(19,31)"/>
<path d="M0,0 L1,0 L1,1 L0,1 Z " fill="#F8F8F8" opacity="0.78039217" transform="translate(18,31)"/>
<path d="M0,0 L1,0 L1,1 L0,1 Z " fill="#FBFBFB" opacity="0.8745098" transform="translate(17,31)"/>
<path d="M0,0 L1,0 L1,1 L0,1 Z " fill="#FEFEFE" opacity="0.9607843" transform="translate(16,31)"/>
<path d="M0,0 L1,0 L1,1 L0,1 Z " fill="#FBFBFB" opacity="0.8745098" transform="translate(14,31)"/>
<path d="M0,0 L1,0 L1,1 L0,1 Z " fill="#F2F2F2" opacity="0.60784316" transform="translate(12,31)"/>
<path d="M0,0 L1,0 L1,1 L0,1 Z " fill="#FDFDFD" opacity="0.02745098" transform="translate(10,31)"/>
<path d="M0,0 L1,0 L1,1 L0,1 Z " fill="#B5B5B5" opacity="0.10980392" transform="translate(23,30)"/>
<path d="M0,0 L1,0 L1,1 L0,1 Z " fill="#F1F1F1" opacity="0.8235294" transform="translate(20,30)"/>
<path d="M0,0 L1,0 L1,1 L0,1 Z " fill="#C3C3C3" opacity="0.5882353" transform="translate(19,30)"/>
<path d="M0,0 L1,0 L1,1 L0,1 Z " fill="#A6A6A6" opacity="0.36078432" transform="translate(17,30)"/>
<path d="M0,0 L1,0 L1,1 L0,1 Z " fill="#8E8E8E" opacity="0.28627452" transform="translate(16,30)"/>
<path d="M0,0 L1,0 L1,1 L0,1 Z " fill="#A6A6A6" opacity="0.36078432" transform="translate(14,30)"/>
<path d="M0,0 L1,0 L1,1 L0,1 Z " fill="#C3C3C3" opacity="0.5882353" transform="translate(12,30)"/>
<path d="M0,0 L1,0 L1,1 L0,1 Z " fill="#FDFDFD" opacity="0.9490196" transform="translate(10,30)"/>
<path d="M0,0 L1,0 L1,1 L0,1 Z " fill="#F8F8F8" opacity="0.10980392" transform="translate(8,30)"/>
<path d="M0,0 L1,0 L1,1 L0,1 Z " fill="#F8F8F8" opacity="0.03529412" transform="translate(25,29)"/>
<path d="M0,0 L1,0 L1,1 L0,1 Z " fill="#FCFCFC" opacity="0.9372549" transform="translate(23,29)"/>
<path d="M0,0 L1,0 L1,1 L0,1 Z " fill="#D3D3D3" opacity="0.6509804" transform="translate(22,29)"/>
<path d="M0,0 L1,0 L1,1 L0,1 Z " fill="#969696" opacity="0.3137255" transform="translate(21,29)"/>
<path d="M0,0 L1,0 L1,1 L0,1 Z " fill="#969696" opacity="0.3137255" transform="translate(10,29)"/>
<path d="M0,0 L1,0 L1,1 L0,1 Z " fill="#D3D3D3" opacity="0.6509804" transform="translate(9,29)"/>
<path d="M0,0 L1,0 L1,1 L0,1 Z " fill="#FCFCFC" opacity="0.9372549" transform="translate(8,29)"/>
<path d="M0,0 L1,0 L1,1 L0,1 Z " fill="#F8F8F8" opacity="0.03529412" transform="translate(6,29)"/>
<path d="M0,0 L1,0 L1,1 L0,1 Z " fill="#B1B1B1" opacity="0.10980392" transform="translate(26,28)"/>
<path d="M0,0 L1,0 L1,1 L0,1 Z " fill="#E1E1E1" opacity="0.7529412" transform="translate(24,28)"/>
<path d="M0,0 L1,0 L1,1 L0,1 Z " fill="#989898" opacity="0.32941177" transform="translate(23,28)"/>
<path d="M0,0 L1,0 L1,1 L0,1 Z " fill="#989898" opacity="0.32941177" transform="translate(8,28)"/>
<path d="M0,0 L1,0 L1,1 L0,1 Z " fill="#F8F8F8" opacity="0.79607844" transform="translate(6,28)"/>
<path d="M0,0 L1,0 L1,1 L0,1 Z " fill="#B1B1B1" opacity="0.10980392" transform="translate(5,28)"/>
<path d="M0,0 L1,0 L1,1 L0,1 Z " fill="#FDFDFD" opacity="0.19215687" transform="translate(27,27)"/>
<path d="M0,0 L1,0 L1,1 L0,1 Z " fill="#FBFBFB" opacity="0.8980392" transform="translate(26,27)"/>
<path d="M0,0 L1,0 L1,1 L0,1 Z " fill="#CFCFCF" opacity="0.60784316" transform="translate(25,27)"/>
<path d="M0,0 L1,0 L1,1 L0,1 Z " fill="#7E7E7E" opacity="0.24705882" transform="translate(24,27)"/>
<path d="M0,0 L1,0 L1,1 L0,1 Z " fill="#7E7E7E" opacity="0.24705882" transform="translate(7,27)"/>
<path d="M0,0 L1,0 L1,1 L0,1 Z " fill="#CFCFCF" opacity="0.60784316" transform="translate(6,27)"/>
<path d="M0,0 L1,0 L1,1 L0,1 Z " fill="#FBFBFB" opacity="0.8980392" transform="translate(5,27)"/>
<path d="M0,0 L1,0 L1,1 L0,1 Z " fill="#FDFDFD" opacity="0.19215687" transform="translate(4,27)"/>
<path d="M0,0 L1,0 L1,1 L0,1 Z " fill="#B2B2B2" opacity="0.11372549" transform="translate(28,26)"/>
<path d="M0,0 L1,0 L1,1 L0,1 Z " fill="#FBFBFB" opacity="0.9019608" transform="translate(27,26)"/>
<path d="M0,0 L1,0 L1,1 L0,1 Z " fill="#BFBFBF" opacity="0.49803922" transform="translate(26,26)"/>
<path d="M0,0 L1,0 L1,1 L0,1 Z " fill="#BFBFBF" opacity="0.49803922" transform="translate(5,26)"/>
<path d="M0,0 L1,0 L1,1 L0,1 Z " fill="#FCFCFC" opacity="0.9019608" transform="translate(4,26)"/>
<path d="M0,0 L1,0 L1,1 L0,1 Z " fill="#B2B2B2" opacity="0.11372549" transform="translate(3,26)"/>
<path d="M0,0 L1,0 L1,1 L0,1 Z " fill="#F4F4F4" opacity="0.03529412" transform="translate(29,25)"/>
<path d="M0,0 L1,0 L1,1 L0,1 Z " fill="#CECECE" opacity="0.6039216" transform="translate(27,25)"/>
<path d="M0,0 L1,0 L1,1 L0,1 Z " fill="#CECECE" opacity="0.6039216" transform="translate(4,25)"/>
<path d="M0,0 L1,0 L1,1 L0,1 Z " fill="#F8F8F8" opacity="0.79607844" transform="translate(3,25)"/>
<path d="M0,0 L1,0 L1,1 L0,1 Z " fill="#F4F4F4" opacity="0.03529412" transform="translate(2,25)"/>
<path d="M0,0 L1,0 L1,1 L0,1 Z " fill="#E1E1E1" opacity="0.7529412" transform="translate(28,24)"/>
<path d="M0,0 L1,0 L1,1 L0,1 Z " fill="#7E7E7E" opacity="0.24705882" transform="translate(27,24)"/>
<path d="M0,0 L1,0 L1,1 L0,1 Z " fill="#7E7E7E" opacity="0.24705882" transform="translate(4,24)"/>
<path d="M0,0 L1,0 L1,1 L0,1 Z " fill="#E1E1E1" opacity="0.7529412" transform="translate(3,24)"/>
<path d="M0,0 L1,0 L1,1 L0,1 Z " fill="#F4F4F4" opacity="0.53333336" transform="translate(2,24)"/>
<path d="M0,0 L1,0 L1,1 L0,1 Z " fill="#F8F8F8" opacity="0.10980392" transform="translate(30,23)"/>
<path d="M0,0 L1,0 L1,1 L0,1 Z " fill="#FCFCFC" opacity="0.9372549" transform="translate(29,23)"/>
<path d="M0,0 L1,0 L1,1 L0,1 Z " fill="#989898" opacity="0.32941177" transform="translate(28,23)"/>
<path d="M0,0 L1,0 L1,1 L0,1 Z " fill="#989898" opacity="0.32941177" transform="translate(3,23)"/>
<path d="M0,0 L1,0 L1,1 L0,1 Z " fill="#FCFCFC" opacity="0.9372549" transform="translate(2,23)"/>
<path d="M0,0 L1,0 L1,1 L0,1 Z " fill="#F8F8F8" opacity="0.10980392" transform="translate(1,23)"/>
<path d="M0,0 L1,0 L1,1 L0,1 Z " fill="#D2D2D2" opacity="0.64705884" transform="translate(29,22)"/>
<path d="M0,0 L1,0 L1,1 L0,1 Z " fill="#D2D2D2" opacity="0.64705884" transform="translate(2,22)"/>
<path d="M0,0 L1,0 L1,1 L0,1 Z " fill="#FAFAFA" opacity="0.6117647" transform="translate(1,22)"/>
<path d="M0,0 L1,0 L1,1 L0,1 Z " fill="#959595" opacity="0.30980393" transform="translate(29,21)"/>
<path d="M0,0 L1,0 L1,1 L0,1 Z " fill="#959595" opacity="0.30980393" transform="translate(2,21)"/>
<path d="M0,0 L1,0 L1,1 L0,1 Z " fill="#F2F2F2" opacity="0.03137255" transform="translate(0,21)"/>
<path d="M0,0 L1,0 L1,1 L0,1 Z " fill="#F2F2F2" opacity="0.30588236" transform="translate(31,20)"/>
<path d="M0,0 L1,0 L1,1 L0,1 Z " fill="#F1F1F1" opacity="0.8156863" transform="translate(30,20)"/>
<path d="M0,0 L1,0 L1,1 L0,1 Z " fill="#F1F1F1" opacity="0.8156863" transform="translate(1,20)"/>
<path d="M0,0 L1,0 L1,1 L0,1 Z " fill="#C2C2C2" opacity="0.58431375" transform="translate(30,19)"/>
<path d="M0,0 L1,0 L1,1 L0,1 Z " fill="#C2C2C2" opacity="0.58431375" transform="translate(1,19)"/>
<path d="M0,0 L1,0 L1,1 L0,1 Z " fill="#F5F5F5" opacity="0.6" transform="translate(0,19)"/>
<path d="M0,0 L1,0 L1,1 L0,1 Z " fill="#F8F8F8" opacity="0.78039217" transform="translate(31,18)"/>
<path d="M0,0 L1,0 L1,1 L0,1 Z " fill="#B0B0B0" opacity="0.42745098" transform="translate(30,18)"/>
<path d="M0,0 L1,0 L1,1 L0,1 Z " fill="#B0B0B0" opacity="0.42745098" transform="translate(1,18)"/>
<path d="M0,0 L1,0 L1,1 L0,1 Z " fill="#F8F8F8" opacity="0.78039217" transform="translate(0,18)"/>
<path d="M0,0 L1,0 L1,1 L0,1 Z " fill="#FAFAFA" opacity="0.8745098" transform="translate(31,17)"/>
<path d="M0,0 L1,0 L1,1 L0,1 Z " fill="#A4A4A4" opacity="0.3529412" transform="translate(30,17)"/>
<path d="M0,0 L1,0 L1,1 L0,1 Z " fill="#A4A4A4" opacity="0.3529412" transform="translate(1,17)"/>
<path d="M0,0 L1,0 L1,1 L0,1 Z " fill="#FAFAFA" opacity="0.8745098" transform="translate(0,17)"/>
<path d="M0,0 L1,0 L1,1 L0,1 Z " fill="#FDFDFD" opacity="0.95686275" transform="translate(31,16)"/>
<path d="M0,0 L1,0 L1,1 L0,1 Z " fill="#8E8E8E" opacity="0.2784314" transform="translate(30,16)"/>
<path d="M0,0 L1,0 L1,1 L0,1 Z " fill="#8E8E8E" opacity="0.2784314" transform="translate(1,16)"/>
<path d="M0,0 L1,0 L1,1 L0,1 Z " fill="#FDFDFD" opacity="0.95686275" transform="translate(0,16)"/>
<path d="M0,0 L1,0 L1,1 L0,1 Z " fill="#FAFAFA" opacity="0.87058824" transform="translate(31,14)"/>
<path d="M0,0 L1,0 L1,1 L0,1 Z " fill="#A7A7A7" opacity="0.36078432" transform="translate(30,14)"/>
<path d="M0,0 L1,0 L1,1 L0,1 Z " fill="#A7A7A7" opacity="0.36078432" transform="translate(1,14)"/>
<path d="M0,0 L1,0 L1,1 L0,1 Z " fill="#FAFAFA" opacity="0.8627451" transform="translate(0,14)"/>
<path d="M0,0 L1,0 L1,1 L0,1 Z " fill="#F3F3F3" opacity="0.5921569" transform="translate(31,12)"/>
<path d="M0,0 L1,0 L1,1 L0,1 Z " fill="#C3C3C3" opacity="0.5921569" transform="translate(30,12)"/>
<path d="M0,0 L1,0 L1,1 L0,1 Z " fill="#C3C3C3" opacity="0.5921569" transform="translate(1,12)"/>
<path d="M0,0 L1,0 L1,1 L0,1 Z " fill="#F3F3F3" opacity="0.5921569" transform="translate(0,12)"/>
<path d="M0,0 L1,0 L1,1 L0,1 Z " fill="#FDFDFD" opacity="0.02745098" transform="translate(31,10)"/>
<path d="M0,0 L1,0 L1,1 L0,1 Z " fill="#FDFDFD" opacity="0.9411765" transform="translate(30,10)"/>
<path d="M0,0 L1,0 L1,1 L0,1 Z " fill="#969696" opacity="0.30980393" transform="translate(29,10)"/>
<path d="M0,0 L1,0 L1,1 L0,1 Z " fill="#969696" opacity="0.30980393" transform="translate(2,10)"/>
<path d="M0,0 L1,0 L1,1 L0,1 Z " fill="#FDFDFD" opacity="0.9411765" transform="translate(1,10)"/>
<path d="M0,0 L1,0 L1,1 L0,1 Z " fill="#FDFDFD" opacity="0.02745098" transform="translate(0,10)"/>
<path d="M0,0 L1,0 L1,1 L0,1 Z " fill="#D2D2D2" opacity="0.6509804" transform="translate(29,9)"/>
<path d="M0,0 L1,0 L1,1 L0,1 Z " fill="#D2D2D2" opacity="0.6509804" transform="translate(2,9)"/>
<path d="M0,0 L1,0 L1,1 L0,1 Z " fill="#F9F9F9" opacity="0.105882354" transform="translate(30,8)"/>
<path d="M0,0 L1,0 L1,1 L0,1 Z " fill="#FCFCFC" opacity="0.9372549" transform="translate(29,8)"/>
<path d="M0,0 L1,0 L1,1 L0,1 Z " fill="#989898" opacity="0.32941177" transform="translate(28,8)"/>
<path d="M0,0 L1,0 L1,1 L0,1 Z " fill="#989898" opacity="0.32941177" transform="translate(3,8)"/>
<path d="M0,0 L1,0 L1,1 L0,1 Z " fill="#FCFCFC" opacity="0.9372549" transform="translate(2,8)"/>
<path d="M0,0 L1,0 L1,1 L0,1 Z " fill="#F8F8F8" opacity="0.10980392" transform="translate(1,8)"/>
<path d="M0,0 L1,0 L1,1 L0,1 Z " fill="#7E7E7E" opacity="0.2509804" transform="translate(27,7)"/>
<path d="M0,0 L1,0 L1,1 L0,1 Z " fill="#7E7E7E" opacity="0.2509804" transform="translate(4,7)"/>
<path d="M0,0 L1,0 L1,1 L0,1 Z " fill="#F8F8F8" opacity="0.03137255" transform="translate(29,6)"/>
<path d="M0,0 L1,0 L1,1 L0,1 Z " fill="#F8F8F8" opacity="0.7882353" transform="translate(28,6)"/>
<path d="M0,0 L1,0 L1,1 L0,1 Z " fill="#D0D0D0" opacity="0.6117647" transform="translate(27,6)"/>
<path d="M0,0 L1,0 L1,1 L0,1 Z " fill="#D0D0D0" opacity="0.6117647" transform="translate(4,6)"/>
<path d="M0,0 L1,0 L1,1 L0,1 Z " fill="#F8F8F8" opacity="0.7882353" transform="translate(3,6)"/>
<path d="M0,0 L1,0 L1,1 L0,1 Z " fill="#F8F8F8" opacity="0.03137255" transform="translate(2,6)"/>
<path d="M0,0 L1,0 L1,1 L0,1 Z " fill="#B2B2B2" opacity="0.105882354" transform="translate(28,5)"/>
<path d="M0,0 L1,0 L1,1 L0,1 Z " fill="#C0C0C0" opacity="0.5019608" transform="translate(26,5)"/>
<path d="M0,0 L1,0 L1,1 L0,1 Z " fill="#C0C0C0" opacity="0.5019608" transform="translate(5,5)"/>
<path d="M0,0 L1,0 L1,1 L0,1 Z " fill="#B2B2B2" opacity="0.105882354" transform="translate(3,5)"/>
<path d="M0,0 L1,0 L1,1 L0,1 Z " fill="#FDFDFD" opacity="0.19215687" transform="translate(27,4)"/>
<path d="M0,0 L1,0 L1,1 L0,1 Z " fill="#CFCFCF" opacity="0.60784316" transform="translate(25,4)"/>
<path d="M0,0 L1,0 L1,1 L0,1 Z " fill="#7E7E7E" opacity="0.24705882" transform="translate(24,4)"/>
<path d="M0,0 L1,0 L1,1 L0,1 Z " fill="#7E7E7E" opacity="0.24705882" transform="translate(7,4)"/>
<path d="M0,0 L1,0 L1,1 L0,1 Z " fill="#CFCFCF" opacity="0.60784316" transform="translate(6,4)"/>
<path d="M0,0 L1,0 L1,1 L0,1 Z " fill="#FDFDFD" opacity="0.19215687" transform="translate(4,4)"/>
<path d="M0,0 L1,0 L1,1 L0,1 Z " fill="#B1B1B1" opacity="0.10980392" transform="translate(26,3)"/>
<path d="M0,0 L1,0 L1,1 L0,1 Z " fill="#E1E1E1" opacity="0.75686276" transform="translate(24,3)"/>
<path d="M0,0 L1,0 L1,1 L0,1 Z " fill="#989898" opacity="0.33333334" transform="translate(23,3)"/>
<path d="M0,0 L1,0 L1,1 L0,1 Z " fill="#989898" opacity="0.32941177" transform="translate(8,3)"/>
<path d="M0,0 L1,0 L1,1 L0,1 Z " fill="#E1E1E1" opacity="0.7529412" transform="translate(7,3)"/>
<path d="M0,0 L1,0 L1,1 L0,1 Z " fill="#B1B1B1" opacity="0.10980392" transform="translate(5,3)"/>
<path d="M0,0 L1,0 L1,1 L0,1 Z " fill="#F4F4F4" opacity="0.03529412" transform="translate(25,2)"/>
<path d="M0,0 L1,0 L1,1 L0,1 Z " fill="#FCFCFC" opacity="0.9411765" transform="translate(23,2)"/>
<path d="M0,0 L1,0 L1,1 L0,1 Z " fill="#D3D3D3" opacity="0.6509804" transform="translate(22,2)"/>
<path d="M0,0 L1,0 L1,1 L0,1 Z " fill="#969696" opacity="0.3137255" transform="translate(21,2)"/>
<path d="M0,0 L1,0 L1,1 L0,1 Z " fill="#969696" opacity="0.3137255" transform="translate(10,2)"/>
<path d="M0,0 L1,0 L1,1 L0,1 Z " fill="#D3D3D3" opacity="0.6509804" transform="translate(9,2)"/>
<path d="M0,0 L1,0 L1,1 L0,1 Z " fill="#FCFCFC" opacity="0.9411765" transform="translate(8,2)"/>
<path d="M0,0 L1,0 L1,1 L0,1 Z " fill="#F4F4F4" opacity="0.03529412" transform="translate(6,2)"/>
<path d="M0,0 L1,0 L1,1 L0,1 Z " fill="#B5B5B5" opacity="0.10980392" transform="translate(23,1)"/>
<path d="M0,0 L1,0 L1,1 L0,1 Z " fill="#FAFAFA" opacity="0.6117647" transform="translate(22,1)"/>
<path d="M0,0 L1,0 L1,1 L0,1 Z " fill="#F2F2F2" opacity="0.8235294" transform="translate(20,1)"/>
<path d="M0,0 L1,0 L1,1 L0,1 Z " fill="#C3C3C3" opacity="0.5882353" transform="translate(19,1)"/>
<path d="M0,0 L1,0 L1,1 L0,1 Z " fill="#A6A6A6" opacity="0.36078432" transform="translate(17,1)"/>
<path d="M0,0 L1,0 L1,1 L0,1 Z " fill="#8E8E8E" opacity="0.28627452" transform="translate(16,1)"/>
<path d="M0,0 L1,0 L1,1 L0,1 Z " fill="#A6A6A6" opacity="0.36078432" transform="translate(14,1)"/>
<path d="M0,0 L1,0 L1,1 L0,1 Z " fill="#C3C3C3" opacity="0.5882353" transform="translate(12,1)"/>
<path d="M0,0 L1,0 L1,1 L0,1 Z " fill="#FDFDFD" opacity="0.94509804" transform="translate(10,1)"/>
<path d="M0,0 L1,0 L1,1 L0,1 Z " fill="#B5B5B5" opacity="0.10980392" transform="translate(8,1)"/>
<path d="M0,0 L1,0 L1,1 L0,1 Z " fill="#F2F2F2" opacity="0.02745098" transform="translate(21,0)"/>
<path d="M0,0 L1,0 L1,1 L0,1 Z " fill="#F5F5F5" opacity="0.6039216" transform="translate(19,0)"/>
<path d="M0,0 L1,0 L1,1 L0,1 Z " fill="#F8F8F8" opacity="0.78039217" transform="translate(18,0)"/>
<path d="M0,0 L1,0 L1,1 L0,1 Z " fill="#FBFBFB" opacity="0.8745098" transform="translate(17,0)"/>
<path d="M0,0 L1,0 L1,1 L0,1 Z " fill="#FEFEFE" opacity="0.9607843" transform="translate(16,0)"/>
<path d="M0,0 L1,0 L1,1 L0,1 Z " fill="#FBFBFB" opacity="0.8745098" transform="translate(14,0)"/>
<path d="M0,0 L1,0 L1,1 L0,1 Z " fill="#F5F5F5" opacity="0.6039216" transform="translate(12,0)"/>
<path d="M0,0 L1,0 L1,1 L0,1 Z " fill="#F2F2F2" opacity="0.02745098" transform="translate(10,0)"/>
</svg>
