<?xml version="1.0" encoding="UTF-8"?>
<!-- Generator: visioncortex VTracer 0.6.4 -->
<svg version="1.1" xmlns="http://www.w3.org/2000/svg" width="8" height="1">
<path d="M0,0 L2,0 L2,1 L0,1 Z M3,0 L8,0 L8,1 L3,1 Z " fill="#A55A00" transform="translate(0,0)"/>
<path d="M0,0 L2,0 L2,1 L0,1 Z " fill="#5A5A00" transform="translate(0,0)"/>
<path d="M0,0 L1,0 L1,1 L0,1 Z " fill="#A5A500" transform="translate(7,0)"/>
<path d="M0,0 L1,0 L1,1 L0,1 Z " fill="#7F0000" transform="translate(6,0)"/>
<path d="M0,0 L1,0 L1,1 L0,1 Z " fill="#5AA500" transform="translate(5,0)"/>
<path d="M0,0 L1,0 L1,1 L0,1 Z " fill="#FF7F00" transform="translate(4,0)"/>
<path d="M0,0 L1,0 L1,1 L0,1 Z " fill="#7FFF00" opacity="0.99215686" transform="translate(2,0)"/>
<path d="M0,0 L1,0 L1,1 L0,1 Z " fill="#007F00" transform="translate(0,0)"/>
</svg>
