<?xml version="1.0" encoding="UTF-8"?>
<!-- Generator: visioncortex VTracer 0.6.4 -->
<svg version="1.1" xmlns="http://www.w3.org/2000/svg" width="16" height="16">
<path d="M0,0 L1,0 L1,1 L2,1 L2,3 L4,3 L4,2 L5,2 L5,3 L6,3 L6,5 L11,5 L11,7 L6,7 L6,9 L5,9 L5,10 L4,10 L4,9 L2,9 L2,11 L1,11 L1,12 L-2,12 L-2,11 L-3,11 L-3,9 L-2,9 L-2,6 L-3,6 L-3,4 L-2,4 L-2,2 L-1,2 L-1,1 L0,1 Z " fill="#FFFF00" opacity="0.24705882" transform="translate(3,2)"/>
<path d="M0,0 L1,0 L1,1 L0,1 Z M2,0 L3,0 L3,1 L2,1 Z M1,1 L2,1 L2,2 L1,2 Z " fill="#FFFF00" opacity="0.24705882" transform="translate(0,2)"/>
<path d="M0,0 L1,0 L1,1 L0,1 Z " fill="#FFFF00" opacity="0.20784314" transform="translate(1,15)"/>
<path d="M0,0 L1,0 L1,1 L0,1 Z " fill="#FFFF00" opacity="0.30980393" transform="translate(11,9)"/>
<path d="M0,0 L1,0 L1,2 L0,2 Z " fill="#FFFF00" opacity="0.32156864" transform="translate(15,7)"/>
<path d="M0,0 L1,0 L1,1 L0,1 Z " fill="#FFFF00" opacity="0.36078432" transform="translate(11,6)"/>
<path d="M0,0 L1,0 L1,1 L0,1 Z " fill="#FFFF00" opacity="0.9098039" transform="translate(1,14)"/>
<path d="M0,0 L1,0 L1,1 L0,1 Z " fill="#FFFF00" opacity="0.6509804" transform="translate(6,12)"/>
<path d="M0,0 L1,0 L1,1 L0,1 Z " fill="#FFFF00" opacity="0.53333336" transform="translate(0,10)"/>
<path d="M0,0 L1,0 L1,1 L0,1 Z " fill="#FFFF00" opacity="0.6039216" transform="translate(14,8)"/>
<path d="M0,0 L1,0 L1,1 L0,1 Z " fill="#FFFF00" opacity="0.49411765" transform="translate(10,6)"/>
<path d="M0,0 L1,0 L1,1 L0,1 Z " fill="#FFFF00" opacity="0.25490198" transform="translate(9,6)"/>
<path d="M0,0 L1,0 L1,1 L0,1 Z " fill="#FFFF00" opacity="0.53333336" transform="translate(0,5)"/>
<path d="M0,0 L1,0 L1,1 L0,1 Z " fill="#FFFF00" opacity="0.7019608" transform="translate(6,3)"/>
<path d="M0,0 L1,0 L1,1 L0,1 Z " fill="#FFFF00" opacity="0.42745098" transform="translate(2,1)"/>
<path d="M0,0 L1,0 L1,1 L0,1 Z " fill="#FFFF00" opacity="0.1764706" transform="translate(1,0)"/>
<path d="M0,0 L1,0 L1,1 L0,1 Z " fill="#FFFF00" opacity="0.4745098" transform="translate(0,15)"/>
<path d="M0,0 L1,0 L1,1 L0,1 Z " fill="#FFFF00" opacity="0.0627451" transform="translate(3,14)"/>
<path d="M0,0 L1,0 L1,1 L0,1 Z " fill="#FFFF00" opacity="0.34117648" transform="translate(2,14)"/>
<path d="M0,0 L1,0 L1,1 L0,1 Z " fill="#FFFF00" opacity="0.9843137" transform="translate(0,14)"/>
<path d="M0,0 L1,0 L1,1 L0,1 Z " fill="#FFFF00" opacity="0.09411765" transform="translate(5,13)"/>
<path d="M0,0 L1,0 L1,1 L0,1 Z " fill="#FFFF00" opacity="0.1882353" transform="translate(4,13)"/>
<path d="M0,0 L1,0 L1,1 L0,1 Z " fill="#FFFF00" opacity="0.34117648" transform="translate(0,13)"/>
<path d="M0,0 L1,0 L1,1 L0,1 Z " fill="#FFFF00" opacity="0.0627451" transform="translate(7,12)"/>
<path d="M0,0 L1,0 L1,1 L0,1 Z " fill="#FFFF00" opacity="0.8" transform="translate(5,12)"/>
<path d="M0,0 L1,0 L1,1 L0,1 Z " fill="#FFFF00" opacity="0.0627451" transform="translate(9,11)"/>
<path d="M0,0 L1,0 L1,1 L0,1 Z " fill="#FFFF00" opacity="0.18431373" transform="translate(8,11)"/>
<path d="M0,0 L1,0 L1,1 L0,1 Z " fill="#FFFF00" opacity="0.3254902" transform="translate(6,11)"/>
<path d="M0,0 L1,0 L1,1 L0,1 Z " fill="#FFFF00" opacity="0.25882354" transform="translate(5,11)"/>
<path d="M0,0 L1,0 L1,1 L0,1 Z " fill="#FFFF00" opacity="0.13725491" transform="translate(11,10)"/>
<path d="M0,0 L1,0 L1,1 L0,1 Z " fill="#FFFF00" opacity="0.77254903" transform="translate(10,10)"/>
<path d="M0,0 L1,0 L1,1 L0,1 Z " fill="#FFFF00" opacity="0.4392157" transform="translate(9,10)"/>
<path d="M0,0 L1,0 L1,1 L0,1 Z " fill="#FFFF00" opacity="0.0627451" transform="translate(13,9)"/>
<path d="M0,0 L1,0 L1,1 L0,1 Z " fill="#FFFF00" opacity="0.18431373" transform="translate(12,9)"/>
<path d="M0,0 L1,0 L1,1 L0,1 Z " fill="#FFFF00" opacity="0.47058824" transform="translate(10,9)"/>
<path d="M0,0 L1,0 L1,1 L0,1 Z " fill="#FFFF00" opacity="0.25490198" transform="translate(9,9)"/>
<path d="M0,0 L1,0 L1,1 L0,1 Z " fill="#FFFF00" opacity="0.98039216" transform="translate(0,9)"/>
<path d="M0,0 L1,0 L1,1 L0,1 Z " fill="#FFFF00" opacity="0.34117648" transform="translate(0,8)"/>
<path d="M0,0 L1,0 L1,1 L0,1 Z " fill="#FFFF00" opacity="0.5058824" transform="translate(14,7)"/>
<path d="M0,0 L1,0 L1,1 L0,1 Z " fill="#FFFF00" opacity="0.05882353" transform="translate(13,6)"/>
<path d="M0,0 L1,0 L1,1 L0,1 Z " fill="#FFFF00" opacity="0.18039216" transform="translate(12,6)"/>
<path d="M0,0 L1,0 L1,1 L0,1 Z " fill="#FFFF00" opacity="0.17254902" transform="translate(11,5)"/>
<path d="M0,0 L1,0 L1,1 L0,1 Z " fill="#FFFF00" opacity="0.7411765" transform="translate(10,5)"/>
<path d="M0,0 L1,0 L1,1 L0,1 Z " fill="#FFFF00" opacity="0.35686275" transform="translate(9,5)"/>
<path d="M0,0 L1,0 L1,1 L0,1 Z " fill="#FFFF00" opacity="0.05882353" transform="translate(9,4)"/>
<path d="M0,0 L1,0 L1,1 L0,1 Z " fill="#FFFF00" opacity="0.18431373" transform="translate(8,4)"/>
<path d="M0,0 L1,0 L1,1 L0,1 Z " fill="#FFFF00" opacity="0.38431373" transform="translate(6,4)"/>
<path d="M0,0 L1,0 L1,1 L0,1 Z " fill="#FFFF00" opacity="0.25882354" transform="translate(5,4)"/>
<path d="M0,0 L1,0 L1,1 L0,1 Z " fill="#FFFF00" opacity="0.98039216" transform="translate(0,4)"/>
<path d="M0,0 L1,0 L1,1 L0,1 Z " fill="#FFFF00" opacity="0.05882353" transform="translate(7,3)"/>
<path d="M0,0 L1,0 L1,1 L0,1 Z " fill="#FFFF00" opacity="0.7137255" transform="translate(5,3)"/>
<path d="M0,0 L1,0 L1,1 L0,1 Z " fill="#FFFF00" opacity="0.34117648" transform="translate(0,3)"/>
<path d="M0,0 L1,0 L1,1 L0,1 Z " fill="#FFFF00" opacity="0.05882353" transform="translate(5,2)"/>
<path d="M0,0 L1,0 L1,1 L0,1 Z " fill="#FFFF00" opacity="0.18431373" transform="translate(4,2)"/>
<path d="M0,0 L1,0 L1,1 L0,1 Z " fill="#FFFF00" opacity="0.25882354" transform="translate(1,2)"/>
<path d="M0,0 L1,0 L1,1 L0,1 Z " fill="#FFFF00" opacity="0.05882353" transform="translate(3,1)"/>
<path d="M0,0 L1,0 L1,1 L0,1 Z " fill="#FFFF00" opacity="0.9137255" transform="translate(1,1)"/>
<path d="M0,0 L1,0 L1,1 L0,1 Z " fill="#FFFF00" opacity="0.32941177" transform="translate(0,1)"/>
<path d="M0,0 L1,0 L1,1 L0,1 Z " fill="#FFFF00" opacity="0.2" transform="translate(0,0)"/>
</svg>
